# xmcd CD database file
#
# Track frame offsets:
#	150
#	36299
#	61024
#	79159
#	104596
#	126066
#	155266
#	175620
#	196158
#	222246
#	244265
#
# Disc length: 3468 seconds
#
# Revision: 0
# Processed by: cddbd v1.5.2PL0 Copyright (c) Steve Scherf et al.
# Submitted via: CDex 1.70beta2
#
DISCID=8d0d8a0b
DTITLE=Vito Di Modugno - Organ Trio
DYEAR=2007
DGENRE=Jazz
TTITLE0=Haitian Fight Song
TTITLE1=OK the Time is Right
TTITLE2=If
TTITLE3=Delgado
TTITLE4=Gota Match
TTITLE5=Little Wing
TTITLE6=The Big
TTITLE7=Fungii Mama
TTITLE8=Senor Blues
TTITLE9=Triss
TTITLE10=La Zita di Ceglie
EXTD=YEAR: 2007
EXTT0=
EXTT1=
EXTT2=
EXTT3=
EXTT4=
EXTT5=
EXTT6=
EXTT7=
EXTT8=
EXTT9=
EXTT10=
PLAYORDER=
